<svg width="42" height="42" viewBox="0 0 42 42" fill="none" xmlns="http://www.w3.org/2000/svg">
  <rect x="1" y="1" width="40" height="40" rx="9" fill="url(#g)" opacity="0.15"/>

  <!-- code brackets -->
  <path d="M12.5 16.5L9 20.5L12.5 24.5" stroke="url(#g)" stroke-width="2" stroke-linecap="round" stroke-linejoin="round"/>
  <path d="M29.5 16.5L33 20.5L29.5 24.5" stroke="url(#g)" stroke-width="2" stroke-linecap="round" stroke-linejoin="round"/>

  <!-- central chip -->
  <rect x="15.5" y="15.5" width="11" height="11" rx="2.5" stroke="url(#g)" stroke-width="2"/>
  <path d="M18.5 18.5H23.5" stroke="url(#g)" stroke-width="2" stroke-linecap="round"/>
  <path d="M18.5 21.5H21.5" stroke="url(#g)" stroke-width="2" stroke-linecap="round"/>

  <!-- chip pins -->
  <path d="M17 13.5V15.5" stroke="url(#g)" stroke-width="2" stroke-linecap="round"/>
  <path d="M21 13.5V15.5" stroke="url(#g)" stroke-width="2" stroke-linecap="round"/>
  <path d="M25 13.5V15.5" stroke="url(#g)" stroke-width="2" stroke-linecap="round"/>

  <path d="M17 26.5V28.5" stroke="url(#g)" stroke-width="2" stroke-linecap="round"/>
  <path d="M21 26.5V28.5" stroke="url(#g)" stroke-width="2" stroke-linecap="round"/>
  <path d="M25 26.5V28.5" stroke="url(#g)" stroke-width="2" stroke-linecap="round"/>

  <path d="M13.5 17H15.5" stroke="url(#g)" stroke-width="2" stroke-linecap="round"/>
  <path d="M13.5 21H15.5" stroke="url(#g)" stroke-width="2" stroke-linecap="round"/>
  <path d="M13.5 25H15.5" stroke="url(#g)" stroke-width="2" stroke-linecap="round"/>

  <path d="M26.5 17H28.5" stroke="url(#g)" stroke-width="2" stroke-linecap="round"/>
  <path d="M26.5 21H28.5" stroke="url(#g)" stroke-width="2" stroke-linecap="round"/>
  <path d="M26.5 25H28.5" stroke="url(#g)" stroke-width="2" stroke-linecap="round"/>

  <!-- spark (learning) -->
  <path d="M31 10.5L31.8 12.4L33.7 13.2L31.8 14L31 15.9L30.2 14L28.3 13.2L30.2 12.4L31 10.5Z"
        stroke="url(#g)" stroke-width="2" stroke-linejoin="round"/>

  <defs>
    <linearGradient id="g" x1="3" y1="1" x2="39" y2="41" gradientUnits="userSpaceOnUse">
      <stop offset="0.259336" stop-color="#FFDB6E"/>
      <stop offset="1" stop-color="#FFBC5E"/>
    </linearGradient>
  </defs>
</svg>
