<svg width="42" height="42" viewBox="0 0 42 42" fill="none" xmlns="http://www.w3.org/2000/svg">
  <rect x="1" y="1" width="40" height="40" rx="9" fill="url(#g)" opacity="0.15"/>

  <path d="M11 30V14" stroke="url(#g)" stroke-width="2" stroke-linecap="round"/>
  <path d="M11 30H29" stroke="url(#g)" stroke-width="2" stroke-linecap="round"/>

  <path d="M14.5 30V22" stroke="url(#g)" stroke-width="2.2" stroke-linecap="round"/>
  <path d="M19 30V19" stroke="url(#g)" stroke-width="2.2" stroke-linecap="round"/>
  <path d="M23.5 30V25" stroke="url(#g)" stroke-width="2.2" stroke-linecap="round"/>

  <path d="M14.5 23.5L19 20.5L23.5 24.5L28 18" stroke="url(#g)" stroke-width="2" stroke-linecap="round" stroke-linejoin="round"/>

  <path d="M26.5 10.5H33C34.3807 10.5 35.5 11.6193 35.5 13V17.2C35.5 18.5807 34.3807 19.7 33 19.7H30.2L27.6 22V19.7H26.5C25.1193 19.7 24 18.5807 24 17.2V13C24 11.6193 25.1193 10.5 26.5 10.5Z"
        stroke="url(#g)" stroke-width="2" stroke-linejoin="round"/>

  <path d="M27 14H32.5" stroke="url(#g)" stroke-width="2" stroke-linecap="round"/>
  <path d="M27 16.7H31" stroke="url(#g)" stroke-width="2" stroke-linecap="round"/>

  <defs>
    <linearGradient id="g" x1="3" y1="1" x2="39" y2="41" gradientUnits="userSpaceOnUse">
      <stop offset="0.259336" stop-color="#FFDB6E"/>
      <stop offset="1" stop-color="#FFBC5E"/>
    </linearGradient>
  </defs>
</svg>
