<svg width="42" height="42" viewBox="0 0 42 42" fill="none" xmlns="http://www.w3.org/2000/svg">
  <rect x="1" y="1" width="40" height="40" rx="9" fill="url(#g)" opacity="0.15"/>

  <!-- lightbulb (insight) -->
  <path d="M21 10.5C16.8579 10.5 13.5 13.8579 13.5 18C13.5 20.575 14.796 22.846 16.75 24.15C17.627 24.735 18.1 25.75 18.1 26.8V27.5H23.9V26.8C23.9 25.75 24.373 24.735 25.25 24.15C27.204 22.846 28.5 20.575 28.5 18C28.5 13.8579 25.1421 10.5 21 10.5Z"
        stroke="url(#g)" stroke-width="2" stroke-linejoin="round"/>

  <!-- filament -->
  <path d="M18.8 18.3L20.2 19.7L23.2 16.7" stroke="url(#g)" stroke-width="2" stroke-linecap="round" stroke-linejoin="round"/>

  <!-- bulb base -->
  <path d="M18.5 30H23.5" stroke="url(#g)" stroke-width="2" stroke-linecap="round"/>
  <path d="M19.5 33H22.5" stroke="url(#g)" stroke-width="2" stroke-linecap="round"/>

  <!-- analytics spark -->
  <path d="M30.5 14L31.2 15.6L32.8 16.3L31.2 17L30.5 18.6L29.8 17L28.2 16.3L29.8 15.6L30.5 14Z"
        stroke="url(#g)" stroke-width="2" stroke-linejoin="round"/>

  <defs>
    <linearGradient id="g" x1="3" y1="1" x2="39" y2="41" gradientUnits="userSpaceOnUse">
      <stop offset="0.259336" stop-color="#FFDB6E"/>
      <stop offset="1" stop-color="#FFBC5E"/>
    </linearGradient>
  </defs>
</svg>
